{"title":"Zootopia 2016 HD TC x264 AC3 TiTAN","uid":14404652,"size":1114414990,"categoryP":"video","categoryS":"movies","magnet":"?xt=urn:btih:841f96bd6e13b734cd9bc81babb5260baa3de2af&amp;dn=Zootopia+2016+HD+TC+x264+AC3+TiTAN+++&amp;tr=udp%3A%2F%2Ftracker.leechers-paradise.org%3A6969&amp;tr=udp%3A%2F%2Fzer0day.ch%3A1337&amp;tr=udp%3A%2F%2Fopen.demonii.com%3A1337&amp;tr=udp%3A%2F%2Ftracker.coppersurfer.tk%3A6969&amp;tr=udp%3A%2F%2Fexodus.desync.com%3A6969","seeders":3,"leechers":0,"uploader":"makintos13","files":2,"time":1461407927,"description":"Zootopia 2016 HD TC x264 AC3 TiTAN   \r\n\r\nScreens:\r\n \nhttps://imgmak.com/T7Q\r\n \nhttps://imgmak.com/T7S\r\n \nhttps://imgmak.com/T7Z\r\n \nhttps://imgmak.com/T7c\r\n \nhttps://imgmak.com/T7n\r\n \nhttps://imgmak.com/T7r\r\n\r\n\r\nSource: 720pTC MP-BA/Exclusive\r\n\r\nGeneral\r\n\r\nFormat                                   : Matroska\r\nFormat version                           : Version 2\r\nFile size                                : 1.04 GiB\r\nDuration                                 : 1h 47mn\r\nOverall bit rate mode                    : Variable\r\nOverall bit rate                         : 1 385 Kbps\r\n\r\nVideo\r\nID                                       : 1\r\nFormat                                   : AVC\r\nFormat/Info                              : Advanced Video Codec\r\nFormat profile                           :   \r\nFormat settings, CABAC                   : Yes\r\nFormat settings, ReFrames                : 3 frames\r\nCodec ID                                 : V_MPEG4/ISO/AVC\r\nDuration                                 : 1h 47mn\r\nBit rate mode                            : Variable\r\nBit rate                                 : 1 134 Kbps\r\nMaximum bit rate                         : 40.0 Mbps\r\nWidth                                    : 720 pixels\r\nHeight                                   : 304 pixels\r\nDisplay aspect ratio                     : 2.35:1\r\nFrame rate mode                          : Constant\r\nFrame rate                               : 23.976 fps\r\nColor space                              : YUV\r\nChroma subsampling                       : 4:2:0\r\nBit depth                                : 8 bits\r\nScan type                                : Progressive\r\nBits/(Pixel*Frame)                       : 0.216\r\nStream size                              : 870 MiB (82%)\r\nDefault                                  : Yes\r\nForced                                   : No\r\nColor primaries                          : BT.709\r\nTransfer characteristics                 : BT.709\r\nMatrix coefficients                      : BT.709\r\n\r\nAudio\r\nID                                       : 2\r\nFormat                                   : AC-3\r\nFormat/Info                              : Audio Coding 3\r\nMode extension                           : CM (complete main)\r\nFormat settings, Endianness              : Big\r\nCodec ID                                 : A_AC3\r\nDuration                                 : 1h 47mn\r\nBit rate mode                            : Constant\r\nBit rate                                 : 224 Kbps\r\nChannel(s)                               : 2 channels\r\nChannel positions                        : Front: L R\r\nSampling rate                            : 44.1 KHz\r\nBit depth                                : 16 bits\r\nCompression mode                         : Lossy\r\nStream size                              : 172 MiB (16%)\r\nLanguage                                 : English\r\nDefault                                  : Yes\r\nForced                                   : No","torrent":{"xt":"urn:btih:841f96bd6e13b734cd9bc81babb5260baa3de2af","amp;dn":"Zootopia+2016+HD+TC+x264+AC3+TiTAN+++","amp;tr":["udp%3A%2F%2Ftracker.leechers-paradise.org%3A6969","udp%3A%2F%2Fzer0day.ch%3A1337","udp%3A%2F%2Fopen.demonii.com%3A1337","udp%3A%2F%2Ftracker.coppersurfer.tk%3A6969","udp%3A%2F%2Fexodus.desync.com%3A6969"],"infoHash":"841f96bd6e13b734cd9bc81babb5260baa3de2af","infoHashBuffer":{"type":"Buffer","data":[132,31,150,189,110,19,183,52,205,155,200,27,171,181,38,11,170,61,226,175]},"announce":[],"urlList":[]}}